<svg id="Layer_3" enable-background="new 0 0 64 64" height="512" viewBox="0 0 64 64" width="512" xmlns="http://www.w3.org/2000/svg"><g><path d="m2 13h36v36h-36z" fill="#a9adcc"/><path d="m2 41.712c1.466.188 2.968.288 4.5.288 15.74 0 28.5-10.297 28.5-23 0-2.076-.347-4.087-.986-6h-32.014z" fill="#babdd6"/><path d="m38 17h14l10 14v14c0 2.209-1.791 4-4 4h-20z" fill="#3279ea"/><circle cx="14" cy="49" fill="#61668c" r="6"/><circle cx="48" cy="49" fill="#61668c" r="6"/><circle cx="14" cy="49" fill="#8389b2" r="2"/><circle cx="48" cy="49" fill="#8389b2" r="2"/><path d="m44 17v14h18l-10-14z" fill="#e2e7f6"/><path d="m42 14h8v3h-8z" fill="#a9adcc"/><path d="m43 14v-2c0-1.657 1.343-3 3-3 1.657 0 3 1.343 3 3v2z" fill="#d23f34"/><path d="m24 41h10v8h-10z" fill="#e2e7f6"/><path d="m27 26h-4v-4h-6v4h-4v6h4v4h6v-4h4z" fill="#d23f34"/><path d="m56 45v4h2c2.209 0 4-1.791 4-4v-3h-3c-1.657 0-3 1.343-3 3z" fill="#7aadf9"/><g><path d="m62.814 30.419-10-14c-.188-.263-.491-.419-.814-.419h-1v-2c0-.552-.448-1-1-1v-1c0-2.206-1.794-4-4-4s-4 1.794-4 4v1c-.552 0-1 .448-1 1v2h-2v-3c0-.552-.448-1-1-1h-36c-.552 0-1 .448-1 1v36c0 .552.448 1 1 1h5.08c.488 3.387 3.401 6 6.92 6s6.432-2.613 6.92-6h20.16c.488 3.387 3.401 6 6.92 6s6.432-2.613 6.92-6h3.08c2.757 0 5-2.243 5-5v-14c0-.208-.065-.412-.186-.581zm-2.757-.419h-15.057v-12h6.485zm-16.057-18c0-1.103.897-2 2-2s2 .897 2 2v1h-4zm-1 3h6v1h-6zm0 3v13c0 .552.448 1 1 1h17v9h-2c-2.206 0-4 1.794-4 4v3h-.08c-.488-3.387-3.401-6-6.92-6s-6.432 2.613-6.92 6h-2.08v-30zm-40-4h34v34h-2v-7c0-.552-.448-1-1-1h-10c-.552 0-1 .448-1 1v7h-2.08c-.488-3.387-3.401-6-6.92-6s-6.432 2.613-6.92 6h-4.08zm30 34h-8v-6h8zm-19 6c-2.757 0-5-2.243-5-5s2.243-5 5-5 5 2.243 5 5-2.243 5-5 5zm34 0c-2.757 0-5-2.243-5-5s2.243-5 5-5 5 2.243 5 5-2.243 5-5 5zm10-6h-1v-3c0-1.103.897-2 2-2h2v2c0 1.654-1.346 3-3 3z"/><path d="m14 46c-1.654 0-3 1.346-3 3s1.346 3 3 3 3-1.346 3-3-1.346-3-3-3zm0 4c-.551 0-1-.449-1-1s.449-1 1-1 1 .449 1 1-.449 1-1 1z"/><path d="m48 46c-1.654 0-3 1.346-3 3s1.346 3 3 3 3-1.346 3-3-1.346-3-3-3zm0 4c-.551 0-1-.449-1-1s.449-1 1-1 1 .449 1 1-.449 1-1 1z"/><path d="m43 34h4v2h-4z"/><path d="m13 33h3v3c0 .552.448 1 1 1h6c.552 0 1-.448 1-1v-3h3c.552 0 1-.448 1-1v-6c0-.552-.448-1-1-1h-3v-3c0-.552-.448-1-1-1h-6c-.552 0-1 .448-1 1v3h-3c-.552 0-1 .448-1 1v6c0 .552.448 1 1 1zm1-6h3c.552 0 1-.448 1-1v-3h4v3c0 .552.448 1 1 1h3v4h-3c-.552 0-1 .448-1 1v3h-4v-3c0-.552-.448-1-1-1h-3z"/></g></g></svg>