<svg id="Layer_3" enable-background="new 0 0 64 64" height="512" viewBox="0 0 64 64" width="512" xmlns="http://www.w3.org/2000/svg"><g><path d="m2 16h56v42h-56z" fill="#8389b2"/><path d="m6 20h48v24h-48z" fill="#3279ea"/><path d="m6 58h12v4h-12z" fill="#a9adcc"/><path d="m42 58h12v4h-12z" fill="#a9adcc"/><g fill="#a3a7c6"><circle cx="9" cy="51" r="3"/><circle cx="19" cy="51" r="3"/><circle cx="51" cy="51" r="3"/></g><circle cx="51" cy="13" fill="#e2e7f6" r="11"/><path d="m58 11h-5v-5h-4v5h-5v4h5v5h4v-5h5z" fill="#d23f34"/><g><path d="m9 47c-2.206 0-4 1.794-4 4s1.794 4 4 4 4-1.794 4-4-1.794-4-4-4zm2 4c0 .178-.031.347-.075.511l-2.437-2.437c.165-.043.334-.074.512-.074 1.103 0 2 .897 2 2zm-4 0c0-.178.031-.347.075-.511l2.437 2.437c-.165.043-.334.074-.512.074-1.103 0-2-.897-2-2z"/><path d="m19 47c-2.206 0-4 1.794-4 4s1.794 4 4 4 4-1.794 4-4-1.794-4-4-4zm0 2c.178 0 .347.031.511.075l-2.437 2.437c-.043-.165-.074-.334-.074-.512 0-1.103.897-2 2-2zm0 4c-.178 0-.347-.031-.511-.075l2.437-2.437c.043.165.074.334.074.512 0 1.103-.897 2-2 2z"/><path d="m51 47c-2.206 0-4 1.794-4 4s1.794 4 4 4 4-1.794 4-4-1.794-4-4-4zm0 6c-1.103 0-2-.897-2-2s.897-2 2-2 2 .897 2 2-.897 2-2 2z"/><path d="m63 13c0-6.617-5.383-12-12-12s-12 5.383-12 12c0 .683.071 1.348.181 2h-37.181c-.552 0-1 .448-1 1v42c0 .553.448 1 1 1h3v3c0 .553.448 1 1 1h12c.552 0 1-.447 1-1v-3h22v3c0 .553.448 1 1 1h12c.552 0 1-.447 1-1v-3h3c.552 0 1-.447 1-1v-36h-.089c2.5-2.201 4.089-5.415 4.089-9zm-12-10c5.514 0 10 4.486 10 10s-4.486 10-10 10-10-4.486-10-10 4.486-10 10-10zm-44 30h3c.379 0 .725-.214.895-.553l1.756-3.513 2.375 10.29c.103.444.493.764.949.775.48.004.863-.287.987-.726l1.792-6.273h5.246c.409 0 .776-.249.929-.628l.986-2.465 3.137 9.41c.138.413.544.678.964.684.436-.007.817-.295.943-.713l2.147-7.158 1.958 5.223c.149.396.516.664.955.648.423-.008.796-.282.93-.684l2.092-6.277 3.019 8.303c.145.397.523.657.94.657.034 0 .069-.002.104-.005.457-.048.822-.399.887-.854l1.337-9.358.712 2.491c.121.43.514.726.96.726h6v10h-46zm46-2h-5.246l-1.793-6.275c-.129-.454-.55-.753-1.03-.723-.471.032-.855.389-.921.856l-1.436 10.046-2.635-7.246c-.146-.4-.508-.652-.954-.658-.425.006-.8.28-.935.684l-2.107 6.32-2.008-5.355c-.151-.402-.569-.67-.97-.648-.429.015-.801.301-.924.712l-2.092 6.975-3.001-9.004c-.133-.398-.5-.671-.919-.683-.422-.019-.802.238-.958.628l-1.748 4.371h-5.323c-.446 0-.839.296-.961.725l-.936 3.274-2.128-9.224c-.095-.411-.438-.718-.856-.768-.417-.048-.824.168-1.013.546l-2.724 5.447h-2.382v-10h35.081c2.199 2.448 5.377 4 8.919 4 .683 0 1.348-.071 2-.181zm-36 30h-10v-2h10zm36 0h-10v-2h10zm4-4h-54v-40h36.7c.248.699.556 1.367.924 2h-34.624c-.552 0-1 .448-1 1v24c0 .553.448 1 1 1h48c.552 0 1-.447 1-1v-19.7c.699-.248 1.367-.556 2-.924z"/><path d="m48 16v4c0 .552.448 1 1 1h4c.552 0 1-.448 1-1v-4h4c.552 0 1-.448 1-1v-4c0-.552-.448-1-1-1h-4v-4c0-.552-.448-1-1-1h-4c-.552 0-1 .448-1 1v4h-4c-.552 0-1 .448-1 1v4c0 .552.448 1 1 1zm-3-4h4c.552 0 1-.448 1-1v-4h2v4c0 .552.448 1 1 1h4v2h-4c-.552 0-1 .448-1 1v4h-2v-4c0-.552-.448-1-1-1h-4z"/></g></g></svg>