<svg id="Layer_3" enable-background="new 0 0 64 64" height="512" viewBox="0 0 64 64" width="512" xmlns="http://www.w3.org/2000/svg"><g><path d="m9 2h46v60h-46z" fill="#a3a7c6"/><path d="m13 6h38v50h-38z" fill="#e2e7f6"/><path d="m13 47.319c20.214-5.125 35-21.454 35-40.819 0-.168-.012-.333-.014-.5h-34.986z" fill="#eef1fa"/><path d="m23 2h18v6h-18z" fill="#8389b2"/><path d="m38 16h-4v-4h-4v4h-4v4h4v4h4v-4h4z" fill="#d23f34"/><path d="m17 28h30v24h-30z" fill="#3279ea"/><g><path d="m55 1h-46c-.552 0-1 .448-1 1v60c0 .552.448 1 1 1h46c.552 0 1-.448 1-1v-60c0-.552-.448-1-1-1zm-32 8h18c.552 0 1-.448 1-1v-1h8v48h-36v-48h8v1c0 .552.448 1 1 1zm17-2h-16v-4h16zm14 54h-44v-58h12v2h-9c-.552 0-1 .448-1 1v50c0 .552.448 1 1 1h38c.552 0 1-.448 1-1v-50c0-.552-.448-1-1-1h-9v-2h12z"/><path d="m26 21h3v3c0 .552.448 1 1 1h4c.552 0 1-.448 1-1v-3h3c.552 0 1-.448 1-1v-4c0-.552-.448-1-1-1h-3v-3c0-.552-.448-1-1-1h-4c-.552 0-1 .448-1 1v3h-3c-.552 0-1 .448-1 1v4c0 .552.448 1 1 1zm1-4h3c.552 0 1-.448 1-1v-3h2v3c0 .552.448 1 1 1h3v2h-3c-.552 0-1 .448-1 1v3h-2v-3c0-.552-.448-1-1-1h-3z"/><path d="m16 28v24c0 .552.448 1 1 1h30c.552 0 1-.448 1-1v-24c0-.552-.448-1-1-1h-30c-.552 0-1 .448-1 1zm5.293 13.707c.195.195.451.293.707.293s.512-.098.707-.293l3.293-3.293v4.586h-8v-6h6.586l-2.586 2.586-1.293-1.293-1.414 1.414zm6.707-4.707h18v6h-18zm-10 8h6.586l-2.586 2.586-1.293-1.293-1.414 1.414 2 2c.195.195.451.293.707.293s.512-.098.707-.293l3.293-3.293v4.586h-8zm10 6v-6h18v6zm18-16h-18v-6h18zm-21.414-6-2.586 2.586-1.293-1.293-1.414 1.414 2 2c.195.195.451.293.707.293s.512-.098.707-.293l3.293-3.293v4.586h-8v-6z"/><path d="m30 31h14v2h-14z"/><path d="m30 39h14v2h-14z"/><path d="m30 47h14v2h-14z"/></g></g></svg>