<svg id="Layer_3" enable-background="new 0 0 64 64" height="512" viewBox="0 0 64 64" width="512" xmlns="http://www.w3.org/2000/svg"><g><path d="m13 2h38v60h-38z" fill="#e2e7f6"/><path d="m25 20h14v10h-14z" fill="#5b94ee"/><path d="m25 30h14v10h-14z" fill="#3279ea"/><path d="m25 40h14v10h-14z" fill="#5b94ee"/><path d="m13 20h12v10h-12z" fill="#3279ea"/><path d="m13 30h12v10h-12z" fill="#5b94ee"/><path d="m13 40h12v10h-12z" fill="#3279ea"/><path d="m39 20h12v10h-12z" fill="#3279ea"/><path d="m39 30h12v10h-12z" fill="#5b94ee"/><path d="m39 40h12v10h-12z" fill="#3279ea"/><path d="m24 54h16v8h-16z" fill="#fff"/><g><path d="m31 54h2v8h-2z" fill="#e2e7f6"/></g><ellipse cx="55" cy="45" fill="#6bc13b" rx="7" ry="9"/><g><path d="m1 61h62v2h-62z" fill="#a9adcc"/></g><path d="m37 9h-3v-3h-4v3h-3v4h3v3h4v-3h3z" fill="#d23f34"/><path d="m60 39c0-.106-.013-.208-.015-.314-1.269-1.657-3.033-2.686-4.985-2.686-3.866 0-7 4.029-7 9 0 3.03 1.169 5.705 2.954 7.336 5.245-1.803 9.046-7.089 9.046-13.336z" fill="#89cd62"/><ellipse cx="9" cy="45" fill="#6bc13b" rx="7" ry="9"/><path d="m14 39c0-.106-.013-.208-.015-.314-1.269-1.657-3.033-2.686-4.985-2.686-3.866 0-7 4.029-7 9 0 3.03 1.169 5.705 2.954 7.336 5.245-1.803 9.046-7.089 9.046-13.336z" fill="#89cd62"/><g><path d="m56 54.913c3.94-.618 7-4.823 7-9.913 0-5.514-3.589-10-8-10-1.061 0-2.073.265-3 .736v-33.736c0-.552-.447-1-1-1h-38c-.553 0-1 .448-1 1v33.736c-.927-.471-1.939-.736-3-.736-4.411 0-8 4.486-8 10 0 5.09 3.06 9.295 7 9.913v6.087h-7v2h62v-2h-7zm-23 .087h6v6h-6zm-2 6h-6v-6h6zm9-8h-16c-.553 0-1 .448-1 1v7h-9v-8.206c.52-.522.983-1.127 1.385-1.794h33.23c.402.667.865 1.271 1.385 1.794v8.206h-9v-7c0-.552-.447-1-1-1zm-23.673-12h7.673v8h-7.673c.431-1.226.673-2.578.673-4s-.242-2.774-.673-4zm9.673-20h12v8h-12zm-2 8h-10v-8h10zm26 0h-10v-8h10zm-12 2v8h-12v-8zm0 10v8h-12v-8zm9.673 8h-7.673v-8h7.673c-.431 1.226-.673 2.578-.673 4s.242 2.774.673 4zm4.327 5.264c.631.32 1.302.54 2 .649v6.087h-2zm9-9.264c0 4.411-2.691 8-6 8s-6-3.589-6-8 2.691-8 6-8 6 3.589 6 8zm-12.385-6h-8.615v-8h10v6.206c-.52.523-.983 1.127-1.385 1.794zm1.385-36v16h-36v-16zm-36 28h10v8h-8.615c-.402-.667-.865-1.271-1.385-1.794zm-11 14c0-4.411 2.691-8 6-8s6 3.589 6 8-2.691 8-6 8-6-3.589-6-8zm7 9.913c.698-.11 1.369-.329 2-.649v6.736h-2z"/><path d="m27 14h2v2c0 .552.447 1 1 1h4c.553 0 1-.448 1-1v-2h2c.553 0 1-.448 1-1v-4c0-.552-.447-1-1-1h-2v-2c0-.552-.447-1-1-1h-4c-.553 0-1 .448-1 1v2h-2c-.553 0-1 .448-1 1v4c0 .552.447 1 1 1zm1-4h2c.553 0 1-.448 1-1v-2h2v2c0 .552.447 1 1 1h2v2h-2c-.553 0-1 .448-1 1v2h-2v-2c0-.552-.447-1-1-1h-2z"/></g></g></svg>