<svg id="Layer_3" enable-background="new 0 0 64 64" height="512" viewBox="0 0 64 64" width="512" xmlns="http://www.w3.org/2000/svg"><g><path d="m40 41h-2l-.514 1.286c-.898 2.243-3.07 3.714-5.486 3.714s-4.588-1.471-5.486-3.714l-.514-1.286h-2c-7.18 0-13 5.82-13 13v8h42v-8c0-7.18-5.82-13-13-13z" fill="#3279ea"/><path d="m32 39c-2.166 0-4.204-.537-6-1.474v3.474l.514 1.286c.898 2.243 3.07 3.714 5.486 3.714s4.588-1.471 5.486-3.714l.514-1.286v-3.474c-1.796.937-3.834 1.474-6 1.474z" fill="#fddfb1"/><path d="m43 5h-22c-3.748 2.499-6 6.706-6 11.211v28.422c2.336-2.246 5.504-3.633 9-3.633h2v-3.474c1.796.937 3.834 1.474 6 1.474s4.204-.537 6-1.474v3.474h2c3.496 0 6.664 1.387 9 3.633v-28.422c0-4.505-2.252-8.712-6-11.211z" fill="#8389b2"/><path d="m45 20v6c0 7.18-5.82 13-13 13-7.18 0-13-5.82-13-13v-6h1.597c4.145 0 8.166-1.411 11.403-4 3.237 2.589 7.258 4 11.403 4z" fill="#fddfb1"/><path d="m32 46c-2.416 0-4.588-1.471-5.486-3.714l-.514-1.286h-3v3.41c0 1.217.455 2.385 1.266 3.245 1.557 1.654 4.035 1.799 5.754.339l1.983-1.992h-.003z" fill="#95bdfa"/><path d="m32.002 46c2.416 0 4.588-1.471 5.486-3.714l.514-1.286h3v3.41c0 1.217-.455 2.385-1.266 3.245-1.557 1.654-4.035 1.799-5.754.339l-1.982-1.992h.002z" fill="#95bdfa"/><path d="m19.051 27c.512 6.711 6.107 12 12.949 12s12.437-5.289 12.949-12z" fill="#7aadf9"/><path d="m42 12h-20l-2-10h24z" fill="#3279ea"/><g><path d="m50 44.221v-28.01c0-4.472-2.067-8.629-5.55-11.362l.53-2.652c.059-.294-.018-.599-.207-.83-.19-.233-.473-.367-.773-.367h-24c-.3 0-.583.134-.773.366-.189.231-.266.536-.207.83l.53 2.652c-3.483 2.734-5.55 6.891-5.55 11.363v28.01c-2.47 2.526-4 5.976-4 9.779v8c0 .553.447 1 1 1h42c.553 0 1-.447 1-1v-8c0-3.804-1.53-7.254-4-9.779zm-7.22-41.221-1.6 8h-18.361l-1.6-8zm-22.783 4.085 1.022 5.111c.094.468.504.804.981.804h20c.477 0 .887-.336.98-.804l1.022-5.112c2.523 2.34 3.998 5.622 3.998 9.127v26.316c-2.27-1.588-5.026-2.527-8-2.527h-1v-1.894c4.177-2.425 7-6.937 7-12.106v-6c0-.552-.447-1-1-1h-1.597c-3.903 0-7.731-1.343-10.778-3.781-.365-.292-.885-.292-1.25 0-3.047 2.438-6.875 3.781-10.778 3.781h-1.597c-.553 0-1 .448-1 1v6c0 5.168 2.823 9.681 7 12.106v1.894h-1c-2.974 0-5.73.939-8 2.527v-26.316c0-3.505 1.475-6.786 3.997-9.126zm4.003 34.915h1.323l.263.657c.788 1.969 2.39 3.416 4.333 4.024l-.547.551c-1.309 1.111-3.192.998-4.379-.263-.631-.669-.993-1.603-.993-2.559zm20-16h-24v-5h.597c4.093 0 8.111-1.323 11.403-3.74 3.292 2.417 7.311 3.74 11.403 3.74h.597zm-.181 2c-.956 5.666-5.885 10-11.819 10s-10.863-4.334-11.819-10zm-11.819 12c1.763 0 3.445-.341 5-.939v1.746l-.443 1.108c-.75 1.874-2.538 3.085-4.557 3.085s-3.807-1.211-4.557-3.085l-.443-1.108v-1.746c1.555.598 3.237.939 5 .939zm6.414 2.657.263-.657h1.323.002v2.41c0 .956-.362 1.89-.993 2.56-1.188 1.261-3.071 1.374-4.317.319l-.606-.609c1.94-.61 3.541-2.055 4.328-4.023zm-26.414 11.343c0-5.934 4.334-10.863 10-11.819v2.23c0 1.482.546 2.878 1.537 3.931 1.031 1.096 2.387 1.657 3.76 1.657 1.197 0 2.409-.427 3.432-1.299l.271-.274v12.574h-11v-6h-2v6h-6zm40 7h-6v-6h-2v6h-11v-12.58l.335.336c.985.838 2.169 1.25 3.348 1.25 1.375 0 2.743-.562 3.783-1.665.99-1.053 1.536-2.449 1.536-3.931v-2.229c5.665.957 9.998 5.885 9.998 11.819z"/><path d="m31 10h2v-2h2v-2h-2v-2h-2v2h-2v2h2z"/></g></g></svg>