<svg id="Layer_3" enable-background="new 0 0 64 64" height="512" viewBox="0 0 64 64" width="512" xmlns="http://www.w3.org/2000/svg"><g><path d="m18 62c-6.627 0-12-5.373-12-12v-36c0-6.627 5.373-12 12-12 6.627 0 12 5.373 12 12v36c0 6.627-5.373 12-12 12z" fill="#a9adcc"/><path d="m24 46h-12c-1.105 0-2-.895-2-2v-24c0-1.105.895-2 2-2h12c1.105 0 2 .895 2 2v24c0 1.105-.895 2-2 2z" fill="#3279ea"/><path d="m46 62c-6.627 0-12-5.373-12-12v-36c0-6.627 5.373-12 12-12 6.627 0 12 5.373 12 12v36c0 6.627-5.373 12-12 12z" fill="#a9adcc"/><path d="m52 46h-12c-1.105 0-2-.895-2-2v-24c0-1.105.895-2 2-2h12c1.105 0 2 .895 2 2v24c0 1.105-.895 2-2 2z" fill="#3279ea"/><g><path d="m18 1c-7.168 0-13 5.832-13 13v36c0 7.168 5.832 13 13 13s13-5.832 13-13v-36c0-7.168-5.832-13-13-13zm11 49c0 6.065-4.935 11-11 11s-11-4.935-11-11v-36c0-6.065 4.935-11 11-11s11 4.935 11 11z"/><path d="m46 1c-7.168 0-13 5.832-13 13v36c0 7.168 5.832 13 13 13s13-5.832 13-13v-36c0-7.168-5.832-13-13-13zm11 49c0 6.065-4.935 11-11 11s-11-4.935-11-11v-36c0-6.065 4.935-11 11-11s11 4.935 11 11z"/><path d="m12 17c-1.654 0-3 1.346-3 3v24c0 1.654 1.346 3 3 3h12c1.654 0 3-1.346 3-3v-24c0-1.654-1.346-3-3-3zm13 3v24c0 .552-.449 1-1 1h-12c-.551 0-1-.448-1-1v-24c0-.552.449-1 1-1h12c.551 0 1 .448 1 1z"/><path d="m40 17c-1.654 0-3 1.346-3 3v24c0 1.654 1.346 3 3 3h12c1.654 0 3-1.346 3-3v-24c0-1.654-1.346-3-3-3zm0 2h3.586l1 1-2.586 2.586-2.93-2.93c.141-.381.501-.656.93-.656zm11.414 21 1.586-1.586v3.172zm-10.828-16-1.586 1.586v-3.172zm1.414 6.586-2.586-2.586 2.586-2.586 2.586 2.586zm4-1.172 2.586 2.586-2.586 2.586-2.586-2.586zm-5.414 2.586-1.586 1.586v-3.172zm-1.172 4 2.586-2.586 2.586 2.586-2.586 2.586zm1.172 4-1.586 1.586v-3.172zm5.414-2.586 2.586 2.586-2.586 2.586-2.586-2.586zm1.414-1.414 2.586-2.586 2.586 2.586-2.586 2.586zm4-4 1.586-1.586v3.172zm1.172-4-2.586 2.586-2.586-2.586 2.586-2.586zm-1.172-4 1.586-1.586v3.172zm-5.414 2.586-2.586-2.586 2.586-2.586 2.586 2.586zm-6.93 17.758 2.93-2.93 2.586 2.586-1 1h-3.586c-.429 0-.789-.275-.93-.656zm12.93.656h-3.586l-1-1 2.586-2.586 2.93 2.93c-.141.381-.501.656-.93.656zm.93-25.344-2.93 2.93-2.586-2.586 1-1h3.586c.429 0 .789.275.93.656z"/><path d="m13 21h2v2h-2z"/><path d="m17 21h2v2h-2z"/><path d="m21 21h2v2h-2z"/><path d="m13 25h2v2h-2z"/><path d="m17 25h2v2h-2z"/><path d="m21 25h2v2h-2z"/><path d="m13 29h2v2h-2z"/><path d="m17 29h2v2h-2z"/><path d="m21 29h2v2h-2z"/><path d="m13 33h2v2h-2z"/><path d="m17 33h2v2h-2z"/><path d="m21 33h2v2h-2z"/><path d="m13 37h2v2h-2z"/><path d="m17 37h2v2h-2z"/><path d="m21 37h2v2h-2z"/><path d="m13 41h2v2h-2z"/><path d="m17 41h2v2h-2z"/><path d="m21 41h2v2h-2z"/></g></g></svg>