<svg id="Layer_3" enable-background="new 0 0 64 64" height="512" viewBox="0 0 64 64" width="512" xmlns="http://www.w3.org/2000/svg"><g><path d="m9 2h20v7h-20z" fill="#7aadf9"/><path d="m27 9v4c5.679 4.417 9 11.208 9 18.402v20.598 4 1c0 2.761-2.239 5-5 5h-24c-2.761 0-5-2.239-5-5v-25.598c0-7.194 3.321-13.985 9-18.402v-4" fill="#3279ea"/><path d="m36 54v-2-20.598c0-1.838-.22-3.649-.637-5.402h-32.726c-.417 1.753-.637 3.564-.637 5.402v22.598z" fill="#babdd6"/><circle cx="19" cy="40" fill="#e2e7f6" r="10"/><path d="m25 38h-4v-4h-4v4h-4v4h4v4h4v-4h4z" fill="#d23f34"/><path d="m48 52 3.201 3.841c1.14 1.368 2.829 2.159 4.609 2.159h.19c3.314 0 6-2.686 6-6z" fill="#3279ea"/><path d="m51.201 55.841-3.201-3.841h-27v4h30.349c-.048-.054-.101-.103-.148-.159z" fill="#7aadf9"/><path d="m60.525 41.198c1.435 2.917-.522 6.452-3.972 6.776-.182.017-.366.026-.553.026s-.371-.009-.553-.026c-3.45-.324-5.407-3.859-3.972-6.776l4.525-9.198z" fill="#f8ced7"/><path d="m49.525 27.198c1.435 2.917-.522 6.452-3.972 6.776-.182.017-.366.026-.553.026s-.371-.009-.553-.026c-3.45-.324-5.407-3.859-3.972-6.776l4.525-9.198z" fill="#f8ced7"/><g><path d="m19 29c-6.065 0-11 4.935-11 11s4.935 11 11 11 11-4.935 11-11-4.935-11-11-11zm0 20c-4.963 0-9-4.037-9-9s4.037-9 9-9 9 4.037 9 9-4.037 9-9 9z"/><path d="m25 37h-3v-3c0-.553-.447-1-1-1h-4c-.553 0-1 .447-1 1v3h-3c-.553 0-1 .447-1 1v4c0 .553.447 1 1 1h3v3c0 .553.447 1 1 1h4c.553 0 1-.447 1-1v-3h3c.553 0 1-.447 1-1v-4c0-.553-.447-1-1-1zm-1 4h-3c-.553 0-1 .447-1 1v3h-2v-3c0-.553-.447-1-1-1h-3v-2h3c.553 0 1-.447 1-1v-3h2v3c0 .553.447 1 1 1h3z"/><path d="m62 51h-10-4-11v-19.599c0-7.392-3.273-14.246-9-18.885v-2.516h1c.553 0 1-.447 1-1v-7c0-.553-.447-1-1-1h-20c-.553 0-1 .447-1 1v7c0 .553.447 1 1 1h1v2.517c-5.727 4.638-9 11.493-9 18.884v25.599c0 3.309 2.691 6 6 6h24c3.309 0 6-2.691 6-6h13.916c1.302 1.277 3.049 2 4.894 2h.19c3.859 0 7-3.141 7-7 0-.553-.447-1-1-1zm-14.469 2 1.667 2h-27.198v-2zm-26.531-2c-.553 0-1 .447-1 1v1h-17v-21.599c0-1.497.155-2.968.44-4.401h31.12c.285 1.433.44 2.904.44 4.401v19.599zm-11-48h18v5h-18zm1.614 10.789c.243-.189.386-.48.386-.789v-3h14v3c0 .309.143.6.386.789 3.735 2.905 6.38 6.817 7.686 11.211h-30.144c1.306-4.394 3.951-8.306 7.686-11.211zm19.386 47.211h-24c-2.206 0-4-1.794-4-4v-2h17v1c0 .553.447 1 1 1h14c0 2.206-1.794 4-4 4zm25-4h-.189c-1.488 0-2.889-.656-3.841-1.8l-1.835-2.2h1.865 8.899c-.464 2.279-2.484 4-4.899 4z"/><path d="m50.729 45.998c.952 1.702 2.638 2.785 4.627 2.973.212.019.427.029.644.029s.432-.01.647-.029c1.986-.188 3.672-1.271 4.624-2.973.909-1.626.966-3.585.151-5.241l-4.525-9.198c-.336-.684-1.459-.684-1.795 0l-4.525 9.198c-.814 1.656-.758 3.615.152 5.241zm1.643-4.358 3.628-7.374 3.628 7.374c.532 1.082.495 2.314-.102 3.382-.627 1.12-1.744 1.833-3.063 1.957-.305.027-.624.027-.923 0-1.322-.124-2.439-.837-3.066-1.957-.597-1.068-.634-2.3-.102-3.382z"/><path d="m44.355 34.971c.213.019.428.029.645.029s.432-.01.647-.029c1.986-.188 3.672-1.271 4.624-2.973.909-1.626.966-3.585.151-5.241l-4.525-9.198c-.336-.684-1.459-.684-1.795 0l-4.525 9.198c-.814 1.656-.758 3.615.151 5.241.953 1.702 2.638 2.785 4.627 2.973zm-2.983-7.331 3.628-7.374 3.628 7.374c.532 1.082.495 2.314-.102 3.382-.627 1.12-1.744 1.833-3.063 1.957-.305.027-.624.027-.923 0-1.322-.124-2.439-.837-3.066-1.957-.597-1.068-.634-2.3-.102-3.382z"/></g></g></svg>