<svg id="Layer_3" enable-background="new 0 0 64 64" height="512" viewBox="0 0 64 64" width="512" xmlns="http://www.w3.org/2000/svg"><g><path d="m23 58h39v4h-39z" fill="#a3a7c6"/><path d="m30 20h14v6h-14z" fill="#e2e7f6"/><path d="m30 6h14v8h-14z" fill="#e2e7f6"/><path d="m32 2h10v4h-10z" fill="#d4d9f0"/><path d="m28 14h18v6h-18z" fill="#d4d9f0"/><path d="m46 15h6v4h-6z" fill="#e2e7f6"/><path d="m52 8h6v46h-6z" fill="#d4d9f0"/><path d="m26 54h34v4h-34z" fill="#a9adcc"/><path d="m32 26h10v4h-10z" fill="#d4d9f0"/><path d="m34 30h6v4h-6z" fill="#e2e7f6"/><path d="m28 44h18v10h-18z" fill="#e2e7f6"/><path d="m30 40h14v4h-14z" fill="#d4d9f0"/><path d="m53 2h4v6h-4z" fill="#e2e7f6"/><path d="m27 36-3.19-5.103c1.375-1.952 2.19-4.328 2.19-6.897 0-6.627-5.373-12-12-12s-12 5.373-12 12 5.373 12 12 12c2.766 0 5.306-.945 7.335-2.518z" fill="#3279ea"/><path d="m7 26v-3l2-2v-2l2-2h2l2 3v2l-2 2-2 1-1 2z" fill="#7aadf9"/><circle cx="19" cy="29" fill="#7aadf9" r="2"/><g><path d="m62 57h-1v-3c0-.553-.448-1-1-1h-1v-45c0-.553-.448-1-1-1v-5c0-.553-.448-1-1-1h-4c-.552 0-1 .447-1 1v5c-.552 0-1 .447-1 1v6h-4c0-.553-.448-1-1-1h-1v-7c0-.553-.448-1-1-1h-1v-3c0-.553-.448-1-1-1h-10c-.552 0-1 .447-1 1v3h-1c-.552 0-1 .447-1 1v7h-1c-.552 0-1 .447-1 1v6c0 .553.448 1 1 1h1v5c0 .553.448 1 1 1h1v3c0 .553.448 1 1 1h1v3c0 .553.448 1 1 1h6c.552 0 1-.447 1-1v-3h1c.552 0 1-.447 1-1v-3h1c.552 0 1-.447 1-1v-5h1c.552 0 1-.447 1-1h4v33h-4v-9c0-.553-.448-1-1-1h-1v-3c0-.553-.448-1-1-1h-14c-.552 0-1 .447-1 1v3h-1c-.552 0-1 .447-1 1v9h-1c-.552 0-1 .447-1 1v3h-2c-.552 0-1 .447-1 1v4c0 .553.448 1 1 1h39c.552 0 1-.447 1-1v-4c0-.553-.448-1-1-1zm-29-54h8v2h-8zm-2 4h12v6h-12zm8 26h-4v-2h4zm2-4h-8v-2h8zm2-4h-12v-4h12zm2-6h-16v-4h16zm9-16h2v4h-2zm-7 15v-2h4v2zm6-9h4v44h-4zm-22 32h12v2h-12zm-2 4h16v8h-16zm-2 10h32v2h-32zm34 6h-37v-2h37z"/><path d="m27 37c.284 0 .561-.12.755-.344.288-.332.326-.813.093-1.187l-2.848-4.555c1.311-2.076 2-4.452 2-6.914 0-7.168-5.832-13-13-13s-13 5.832-13 13 5.832 13 13 13c2.695 0 5.262-.816 7.461-2.367l5.132 2.281c.132.058.27.086.407.086zm-4.038-5.573 1.458 2.332-2.679-1.19c-.335-.147-.727-.102-1.019.123-1.949 1.51-4.273 2.308-6.722 2.308-6.065 0-11-4.935-11-11s4.935-11 11-11 11 4.935 11 11c0 2.271-.694 4.456-2.007 6.32-.232.329-.243.765-.031 1.107z"/><path d="m16 20c0-.197-.059-.391-.168-.555l-2-3c-.186-.278-.498-.445-.832-.445h-2c-.265 0-.52.105-.707.293l-2 2c-.188.187-.293.441-.293.707v1.586l-1.707 1.707c-.188.187-.293.441-.293.707v3c0 .431.275.812.684.948l3 1c.104.035.211.052.316.052.37 0 .721-.206.895-.553l.851-1.702 1.702-.851c.096-.048.184-.111.26-.188l2-2c.187-.186.292-.44.292-.706zm-2 1.586-1.592 1.592-1.855.928c-.193.097-.351.254-.447.447l-.612 1.225-1.494-.499v-1.865l1.707-1.707c.188-.187.293-.441.293-.707v-1.586l1.414-1.414h1.051l1.535 2.303z"/><path d="m18 16.586h2v2.828h-2z" transform="matrix(.707 -.707 .707 .707 -7.163 18.707)"/><path d="m11.586 28h2.828v2h-2.828z" transform="matrix(.707 -.707 .707 .707 -16.699 17.686)"/><path d="m8 30h2v2h-2z"/><path d="m18 22h2v2h-2z"/><path d="m19 26c-1.654 0-3 1.346-3 3s1.346 3 3 3 3-1.346 3-3-1.346-3-3-3zm0 4c-.551 0-1-.448-1-1s.449-1 1-1 1 .448 1 1-.449 1-1 1z"/></g></g></svg>