<svg id="Layer_3" enable-background="new 0 0 64 64" height="512" viewBox="0 0 64 64" width="512" xmlns="http://www.w3.org/2000/svg"><g><path d="m37 12h14v40h-14z" fill="#a9adcc"/><path d="m37 58h14v4h-14z" fill="#a9adcc"/><path d="m40 52h8v6h-8z" fill="#e2e7f6"/><path d="m39 8h10v4h-10z" fill="#e2e7f6"/><path d="m13 12h14v40h-14z" fill="#a9adcc"/><path d="m13 58h14v4h-14z" fill="#a9adcc"/><path d="m16 52h8v6h-8z" fill="#e2e7f6"/><path d="m15 8h10v4h-10z" fill="#e2e7f6"/><circle cx="32" cy="32" fill="#7aadf9" r="11"/><path d="m39 30h-5v-5h-4v5h-5v4h5v5h4v-5h5z" fill="#d23f34"/><g><path d="m51 53c.553 0 1-.448 1-1v-40c0-.552-.447-1-1-1h-1v-3c0-.552-.447-1-1-1h-4v-6h-2v6h-4c-.553 0-1 .448-1 1v3h-1c-.553 0-1 .448-1 1v8.7c-1.253-.445-2.596-.7-4-.7s-2.747.255-4 .7v-8.7c0-.552-.447-1-1-1h-1v-3c0-.552-.447-1-1-1h-4v-6h-2v6h-4c-.553 0-1 .448-1 1v3h-1c-.553 0-1 .448-1 1v40c0 .552.447 1 1 1h2v4h-2c-.553 0-1 .448-1 1v4c0 .552.447 1 1 1h14c.553 0 1-.448 1-1v-4c0-.552-.447-1-1-1h-2v-4h2c.553 0 1-.448 1-1v-8.7c1.253.445 2.596.7 4 .7s2.747-.255 4-.7v8.7c0 .552.447 1 1 1h2v4h-2c-.553 0-1 .448-1 1v4c0 .552.447 1 1 1h14c.553 0 1-.448 1-1v-4c0-.552-.447-1-1-1h-2v-4zm-11-44h8v2h-8zm-24 0h8v2h-8zm10 52h-12v-2h12zm-3-4h-6v-4h6zm3-6h-12v-4h6v-2h-6v-2h4v-2h-4v-2h4v-2h-4v-2h4v-2h-4v-2h6v-2h-6v-2h4v-2h-4v-2h4v-2h-4v-2h4v-2h-4v-4h12v8.624c-3.581 2.078-6 5.946-6 10.376s2.419 8.298 6 10.376zm-4-19c0-5.514 4.486-10 10-10s10 4.486 10 10-4.486 10-10 10-10-4.486-10-10zm16 15h6v-2h-6v-2h4v-2h-2.089c2.5-2.201 4.089-5.415 4.089-9s-1.589-6.799-4.089-9h2.089v-2h-4v-2h4v-2h-4v-4h12v38h-12zm12 14h-12v-2h12zm-3-4h-6v-4h6z"/><path d="m40 34v-4c0-.552-.447-1-1-1h-4v-4c0-.552-.447-1-1-1h-4c-.553 0-1 .448-1 1v4h-4c-.553 0-1 .448-1 1v4c0 .552.447 1 1 1h4v4c0 .552.447 1 1 1h4c.553 0 1-.448 1-1v-4h4c.553 0 1-.448 1-1zm-2-1h-4c-.553 0-1 .448-1 1v4h-2v-4c0-.552-.447-1-1-1h-4v-2h4c.553 0 1-.448 1-1v-4h2v4c0 .552.447 1 1 1h4z"/></g></g></svg>