<svg id="Layer_3" enable-background="new 0 0 64 64" height="512" viewBox="0 0 64 64" width="512" xmlns="http://www.w3.org/2000/svg"><g><path d="m39 8.5c0-1.381-1.119-2.5-2.5-2.5s-2.5 1.119-2.5 2.5v-2c0-1.381-1.119-2.5-2.5-2.5s-2.5 1.119-2.5 2.5v-2c0-1.381-1.119-2.5-2.5-2.5s-2.5 1.119-2.5 2.5v2c0-1.381-1.119-2.5-2.5-2.5s-2.5 1.119-2.5 2.5v2.5c-2.209 0-4 1.791-4 4v8c0 3.357 2.069 6.226 5 7.413v34.587h14v-34.587c2.931-1.187 5-4.057 5-7.413v-5l-.1.163c.059-.213.1-.432.1-.663zm-15 .5v.05c-.162-.032-.329-.05-.5-.05z" fill="#fddfb1"/><path d="m20 34h14v6h-14z" fill="#e2e7f6"/><path d="m20 40h14v6h-14z" fill="#a9adcc"/><path d="m20 52h14v6h-14z" fill="#a9adcc"/><path d="m20 58h14v5h-14z" fill="#e2e7f6"/><path d="m20 52h18l2-6h-20z" fill="#e2e7f6"/><g><path d="m40 45h-5v-15.95c2.958-1.476 5-4.525 5-8.05v-5h-.051c.024-.165.051-.329.051-.5v-7c0-1.93-1.57-3.5-3.5-3.5-.612 0-1.178.172-1.679.448-.45-1.414-1.76-2.448-3.321-2.448-.612 0-1.178.172-1.679.448-.45-1.414-1.76-2.448-3.321-2.448s-2.871 1.034-3.321 2.448c-.501-.276-1.067-.448-1.679-.448-1.93 0-3.5 1.57-3.5 3.5v1.601c-2.279.465-4 2.484-4 4.899v8c0 3.525 2.042 6.574 5 8.05v33.95h2v-4h12v4h2v-10h3c.431 0 .812-.275.949-.684l2-6c.102-.305.05-.641-.138-.901s-.49-.415-.811-.415zm-19 0v-4h12v4zm0-10h12v4h-12zm15.5-28c.827 0 1.5.673 1.5 1.5v7c0 .827-.673 1.5-1.5 1.5s-1.5-.673-1.5-1.5v-7c0-.827.673-1.5 1.5-1.5zm-5-2c.827 0 1.5.673 1.5 1.5v2 7c0 .827-.673 1.5-1.5 1.5s-1.5-.673-1.5-1.5v-9c0-.827.673-1.5 1.5-1.5zm-6.5-.5c0-.827.673-1.5 1.5-1.5s1.5.673 1.5 1.5v2 9c0 .827-.673 1.5-1.5 1.5s-1.5-.673-1.5-1.5v-.851c1.178-.564 2-1.758 2-3.149s-.822-2.585-2-3.149v-1.851zm-2 11c0 .827-.673 1.5-1.5 1.5-.174 0-.341-.033-.5-.089v-1.911h2zm-1.5-10.5c.827 0 1.5.673 1.5 1.5v1.5h-3v-1.5c0-.827.673-1.5 1.5-1.5zm1.5 25v-2c-3.86 0-7-3.141-7-7v-8c0-1.654 1.346-3 3-3h4.5c.827 0 1.5.673 1.5 1.5s-.673 1.5-1.5 1.5h-3.5c-.552 0-1 .447-1 1v6c0 .553.448 1 1 1 2.757 0 5 2.243 5 5h2c0-3.521-2.612-6.442-6-6.929v-.111c.165.023.331.04.5.04.98 0 1.864-.407 2.5-1.058.636.651 1.52 1.058 2.5 1.058s1.864-.407 2.5-1.058c.636.651 1.52 1.058 2.5 1.058s1.864-.407 2.5-1.058c.636.651 1.52 1.058 2.5 1.058.539 0 1.044-.133 1.5-.351v2.351c0 3.859-3.14 7-7 7v2c.688 0 1.356-.085 2-.232v3.232h-12v-3.232c.644.147 1.312.232 2 .232zm10 27h-12v-4h12zm4.279-6h-16.279v-4h17.613z"/><path d="m42.172 43h5.657v2h-5.657z" transform="matrix(.707 -.707 .707 .707 -17.933 44.707)"/><path d="m44 51.172h2v5.657h-2z" transform="matrix(.707 -.707 .707 .707 -25.004 47.636)"/><path d="m44 48h5v2h-5z"/></g></g></svg>