<svg id="Layer_3" enable-background="new 0 0 64 64" height="512" viewBox="0 0 64 64" width="512" xmlns="http://www.w3.org/2000/svg"><g><path d="m46 46h-28c-2.209 0-4-1.791-4-4v-36c0-2.209 1.791-4 4-4h28c2.209 0 4 1.791 4 4v36c0 2.209-1.791 4-4 4z" fill="#d23f34"/><path d="m14 10h36v28h-36z" fill="#d4d9f0"/><circle cx="32" cy="24" fill="#d23f34" r="10"/><path d="m38.789 16.673c-1.784-1.654-4.164-2.673-6.789-2.673-5.523 0-10 4.477-10 10 0 3.279 1.586 6.181 4.024 8.004 6.801-2.868 11.725-8.565 12.765-15.331z" fill="#db655d"/><path d="m35.55 24.477c1.26 2.298-.241 5.2-3.038 5.496-.168.018-.339.027-.512.027s-.344-.009-.511-.027c-2.798-.296-4.298-3.198-3.038-5.496l3.549-6.477z" fill="#d4d9f0"/><path d="m19 46h10v4h-10z" fill="#a9adcc"/><path d="m35 46h10v4h-10z" fill="#a9adcc"/><path d="m22 50h4v12h-4z" fill="#e2e7f6"/><path d="m50 58h-6c-1.105 0-2-.895-2-2v-6h-4v7c0 2.761 2.239 5 5 5h7z" fill="#e2e7f6"/><g><path d="m32 35c6.065 0 11-4.935 11-11s-4.935-11-11-11-11 4.935-11 11 4.935 11 11 11zm0-20c4.962 0 9 4.038 9 9s-4.038 9-9 9-9-4.038-9-9 4.038-9 9-9z"/><path d="m31.384 30.968c.202.021.408.032.616.032s.414-.011.617-.032c1.656-.176 3.094-1.138 3.845-2.573.726-1.389.713-3.033-.035-4.398l-3.55-6.477c-.352-.641-1.402-.641-1.754 0l-3.55 6.477c-.749 1.366-.761 3.01-.035 4.398.752 1.435 2.189 2.397 3.846 2.573zm-2.057-6.011 2.673-4.876 2.673 4.876c.433.789.438 1.704.017 2.51-.447.854-1.279 1.405-2.283 1.511-.267.028-.548.028-.812 0-1.005-.106-1.837-.657-2.284-1.511-.422-.806-.416-1.721.016-2.51z"/><path d="m45 51c.552 0 1-.447 1-1v-3c2.757 0 5-2.243 5-5v-36c0-2.757-2.243-5-5-5h-28c-2.757 0-5 2.243-5 5v36c0 2.757 2.243 5 5 5v3c0 .553.448 1 1 1h2v12h2v-12h2v12h2v-12h2c.552 0 1-.447 1-1v-3h4v3c0 .553.448 1 1 1h2v6c0 3.309 2.691 6 6 6h7v-2h-7c-2.206 0-4-1.794-4-4v-6h2v5c0 1.654 1.346 3 3 3h6v-2h-6c-.551 0-1-.448-1-1v-5zm4-14h-34v-26h34zm-31-34h28c1.654 0 3 1.346 3 3v3h-34v-3c0-1.654 1.346-3 3-3zm-3 39v-3h34v3c0 1.654-1.346 3-3 3h-28c-1.654 0-3-1.346-3-3zm13 7h-8v-2h8zm8-2h8v2h-8z"/></g></g></svg>