<svg id="Layer_3" enable-background="new 0 0 64 64" height="512" viewBox="0 0 64 64" width="512" xmlns="http://www.w3.org/2000/svg"><g><path d="m22 2h16v14h-16z" fill="#d23f34"/><path d="m24 16v40c0 3.314 2.686 6 6 6 3.314 0 6-2.686 6-6v-40z" fill="#e2e7f6"/><path d="m24 24h12v28h-12z" fill="#d23f34"/><path d="m51 15c-6.075 0-11 4.925-11 11 0 2.582.896 4.95 2.385 6.827l-2.385 4.173 5.128-1.709c1.701 1.077 3.71 1.709 5.872 1.709 6.075 0 11-4.925 11-11s-4.925-11-11-11z" fill="#e2e7f6"/><path d="m55.336 26.042c1.764 2.865-.156 6.601-3.77 6.932-.186.017-.375.026-.566.026s-.38-.009-.567-.026c-3.613-.331-5.533-4.068-3.77-6.932l4.337-7.042z" fill="#d23f34"/><path d="m2 2h16v14h-16z" fill="#d23f34"/><path d="m4 16v40c0 3.314 2.686 6 6 6 3.314 0 6-2.686 6-6v-40z" fill="#e2e7f6"/><path d="m4 24h12v28h-12z" fill="#d23f34"/><g><path d="m18 1h-16c-.553 0-1 .448-1 1v14c0 .552.447 1 1 1h1v39c0 3.86 3.141 7 7 7s7-3.14 7-7v-39h1c.553 0 1-.448 1-1v-14c0-.552-.447-1-1-1zm-7 14v-12h2v12zm-4 0v-12h2v12zm-4-12h2v12h-2zm2 22h10v26h-10zm5 36c-2.757 0-5-2.243-5-5v-3h10v3c0 2.757-2.243 5-5 5zm5-38h-10v-6h10zm2-8h-2v-12h2z"/><path d="m11 29v-2h-2v2h-2v2h2v2h2v-2h2v-2z"/><path d="m7 37h6v2h-6z"/><path d="m7 41h6v2h-6z"/><path d="m7 45h6v2h-6z"/><path d="m39 2c0-.552-.447-1-1-1h-16c-.553 0-1 .448-1 1v14c0 .552.447 1 1 1h1v39c0 3.86 3.141 7 7 7s7-3.14 7-7v-39h1c.553 0 1-.448 1-1zm-8 13v-12h2v12zm-4 0v-12h2v12zm-4-12h2v12h-2zm2 22h10v26h-10zm5 36c-2.757 0-5-2.243-5-5v-3h10v3c0 2.757-2.243 5-5 5zm5-38h-10v-6h10zm2-8h-2v-12h2z"/><path d="m31 29v-2h-2v2h-2v2h2v2h2v-2h2v-2z"/><path d="m27 37h6v2h-6z"/><path d="m27 41h6v2h-6z"/><path d="m27 45h6v2h-6z"/><path d="m51 14c-6.617 0-12 5.383-12 12 0 2.5.755 4.872 2.19 6.901l-2.059 3.603c-.206.36-.168.81.095 1.13.194.236.48.366.774.366.105 0 .212-.017.316-.051l4.689-1.563c1.827 1.057 3.89 1.614 5.995 1.614 6.617 0 12-5.383 12-12s-5.383-12-12-12zm0 22c-1.887 0-3.732-.538-5.337-1.554-.162-.103-.348-.155-.535-.155-.106 0-.213.017-.316.051l-2.645.882 1.086-1.9c.203-.355.169-.797-.085-1.118-1.418-1.788-2.168-3.934-2.168-6.206 0-5.514 4.486-10 10-10s10 4.486 10 10-4.486 10-10 10z"/><path d="m51.852 18.476c-.363-.591-1.34-.591-1.703 0l-4.336 7.042c-.992 1.611-1.078 3.585-.229 5.281.897 1.795 2.677 2.981 4.76 3.171.215.02.433.03.656.03s.441-.01.657-.03c2.083-.19 3.862-1.376 4.76-3.171.849-1.695.763-3.669-.23-5.281zm2.777 11.428c-.587 1.172-1.766 1.947-3.153 2.075-.314.028-.637.028-.951 0-1.388-.127-2.566-.903-3.153-2.075-.544-1.088-.491-2.305.145-3.337l3.483-5.66 3.484 5.659c.636 1.033.689 2.249.145 3.338z"/></g></g></svg>