<svg id="Layer_3" enable-background="new 0 0 64 64" height="512" viewBox="0 0 64 64" width="512" xmlns="http://www.w3.org/2000/svg"><g><path d="m35 62h-24c-3.314 0-6-2.686-6-6v-48c0-3.314 2.686-6 6-6h24c3.314 0 6 2.686 6 6v48c0 3.314-2.686 6-6 6z" fill="#babdd6"/><path d="m10 10h26v42h-26z" fill="#3279ea"/><circle cx="23" cy="57" fill="#e2e7f6" r="2"/><path d="m45 11c-7.732 0-14 6.268-14 14 0 3.179 1.072 6.1 2.856 8.45l-4.856 5.55 8.951-1.918c2.072 1.212 4.475 1.918 7.049 1.918 7.732 0 14-6.268 14-14s-6.268-14-14-14z" fill="#e2e7f6"/><path d="m54 22h-6v-6h-6v6h-6v6h6v6h6v-6h6z" fill="#d23f34"/><g><path d="m20 5h7v2h-7z"/><path d="m23 54c-1.654 0-3 1.346-3 3s1.346 3 3 3 3-1.346 3-3-1.346-3-3-3zm0 4c-.551 0-1-.449-1-1s.449-1 1-1 1 .449 1 1-.449 1-1 1z"/><path d="m45 10c-1.027 0-2.03.105-3 .302v-2.302c0-3.86-3.14-7-7-7h-24c-3.86 0-7 3.14-7 7v48c0 3.86 3.14 7 7 7h24c3.86 0 7-3.14 7-7v-16.312c.985.203 1.99.312 3 .312 8.271 0 15-6.729 15-15s-6.729-15-15-15zm-5 46c0 2.757-2.243 5-5 5h-24c-2.757 0-5-2.243-5-5v-48c0-2.757 2.243-5 5-5h24c2.757 0 5 2.243 5 5v2.875c-1.06.376-2.064.865-3 1.458v-2.333c0-.552-.448-1-1-1h-26c-.552 0-1 .448-1 1v42c0 .552.448 1 1 1h26c.552 0 1-.448 1-1v-13.691l.789-.169c.711.391 1.452.716 2.211.987zm-11.862-16.493c.182.309.513.493.862.493.069 0 .14-.007.209-.022l5.791-1.241v12.263h-24v-40h24v2.851c-3.061 2.749-5 6.722-5 11.149 0 3.015.89 5.898 2.582 8.388l-4.334 4.953c-.284.325-.329.794-.11 1.166zm16.862-1.507c-2.289 0-4.552-.616-6.544-1.781-.154-.09-.329-.137-.505-.137-.07 0-.14.007-.209.022l-6.005 1.287 2.872-3.283c.313-.357.331-.885.044-1.264-1.736-2.284-2.653-4.997-2.653-7.844 0-7.168 5.832-13 13-13s13 5.832 13 13-5.832 13-13 13z"/><path d="m54 21h-5v-5c0-.552-.448-1-1-1h-6c-.552 0-1 .448-1 1v5h-5c-.552 0-1 .448-1 1v6c0 .552.448 1 1 1h5v5c0 .552.448 1 1 1h6c.552 0 1-.448 1-1v-5h5c.552 0 1-.448 1-1v-6c0-.552-.448-1-1-1zm-1 6h-5c-.552 0-1 .448-1 1v5h-4v-5c0-.552-.448-1-1-1h-5v-4h5c.552 0 1-.448 1-1v-5h4v5c0 .552.448 1 1 1h5z"/><path d="m13 38h12v2h-12z"/><path d="m13 42h19v2h-19z"/><path d="m13 46h19v2h-19z"/></g></g></svg>