<svg id="Layer_3" enable-background="new 0 0 64 64" height="512" viewBox="0 0 64 64" width="512" xmlns="http://www.w3.org/2000/svg"><g><path d="m25 38h14v24h-14z" fill="#e2e7f6"/><path d="m25 42h14v16h-14z" fill="#3279ea"/><path d="m25 56.182c6.635-2.009 11.495-7.545 11.945-14.182h-11.945z" fill="#5b94ee"/><path d="m23 32h18v6h-18z" fill="#3279ea"/><path d="m4 38h14v24h-14z" fill="#e2e7f6"/><path d="m4 42h14v16h-14z" fill="#3279ea"/><path d="m4 56.182c6.635-2.009 11.495-7.545 11.945-14.182h-11.945z" fill="#5b94ee"/><path d="m2 32h18v6h-18z" fill="#3279ea"/><path d="m46 38h14v24h-14z" fill="#e2e7f6"/><path d="m46 42h14v16h-14z" fill="#3279ea"/><path d="m46 56.182c6.635-2.009 11.495-7.545 11.945-14.182h-11.945z" fill="#5b94ee"/><path d="m44 32h18v6h-18z" fill="#3279ea"/><circle cx="32" cy="50" fill="#e2e7f6" r="3"/><circle cx="53" cy="50" fill="#e2e7f6" r="3"/><path d="m32 47c-1.657 0-3 1.343-3 3 0 .828.336 1.578.879 2.121l4.243-4.243c-.544-.542-1.294-.878-2.122-.878z" fill="#a9adcc"/><path d="m53 53c1.657 0 3-1.343 3-3h-6c0 1.657 1.343 3 3 3z" fill="#a9adcc"/><path d="m8.597 49.519 1.922-1.922c.796-.796 2.087-.796 2.883 0 .796.796.796 2.087 0 2.883l-1.922 1.922c-.796.796-2.087.796-2.883 0-.796-.795-.796-2.086 0-2.883z" fill="#e2e7f6"/><path d="m9.558 48.558-.961.961c-.796.796-.796 2.087 0 2.883s2.087.796 2.883 0l.961-.961z" fill="#a9adcc"/><path d="m51 26h-38c-1.657 0-3-1.343-3-3v-18c0-1.657 1.343-3 3-3h38c1.657 0 3 1.343 3 3v18c0 1.657-1.343 3-3 3z" fill="#a9adcc"/><g fill="#fff"><circle cx="16" cy="8" r="2"/><circle cx="24" cy="8" r="2"/><circle cx="32" cy="8" r="2"/><circle cx="40" cy="8" r="2"/><circle cx="48" cy="8" r="2"/><circle cx="16" cy="20" r="2"/><circle cx="24" cy="20" r="2"/><circle cx="32" cy="20" r="2"/><circle cx="40" cy="20" r="2"/><circle cx="48" cy="20" r="2"/></g><g><path d="m41 31h-18c-.552 0-1 .448-1 1v6c0 .552.448 1 1 1h1v23c0 .552.448 1 1 1h14c.552 0 1-.448 1-1v-23h1c.552 0 1-.448 1-1v-6c0-.552-.448-1-1-1zm-15 12h12v14h-12zm0 18v-2h12v2zm12-20h-12v-2h12zm2-4h-16v-4h16z"/><path d="m62 31h-18c-.552 0-1 .448-1 1v6c0 .552.448 1 1 1h1v23c0 .552.448 1 1 1h14c.552 0 1-.448 1-1v-23h1c.552 0 1-.448 1-1v-6c0-.552-.448-1-1-1zm-15 12h12v14h-12zm0 18v-2h12v2zm12-20h-12v-2h12zm2-4h-16v-4h16z"/><path d="m20 31h-18c-.552 0-1 .448-1 1v6c0 .552.448 1 1 1h1v23c0 .552.448 1 1 1h14c.552 0 1-.448 1-1v-23h1c.552 0 1-.448 1-1v-6c0-.552-.448-1-1-1zm-15 12h12v14h-12zm0 18v-2h12v2zm12-20h-12v-2h12zm2-4h-16v-4h16z"/><path d="m32 46c-2.206 0-4 1.794-4 4s1.794 4 4 4 4-1.794 4-4-1.794-4-4-4zm0 2c.178 0 .347.031.511.075l-2.437 2.437c-.043-.165-.074-.334-.074-.512 0-1.103.897-2 2-2zm0 4c-.178 0-.347-.031-.511-.075l2.437-2.437c.043.165.074.334.074.512 0 1.103-.897 2-2 2z"/><path d="m53 46c-2.206 0-4 1.794-4 4s1.794 4 4 4 4-1.794 4-4-1.794-4-4-4zm0 2c.737 0 1.375.405 1.722 1h-3.444c.347-.595.985-1 1.722-1zm0 4c-.737 0-1.375-.405-1.722-1h3.444c-.347.595-.985 1-1.722 1z"/><path d="m14.11 46.89c-1.147-1.148-3.15-1.148-4.297 0l-1.923 1.922c-.574.574-.89 1.337-.89 2.149s.316 1.575.89 2.149 1.337.89 2.149.89 1.575-.316 2.148-.89l1.922-1.922c.574-.574.89-1.337.89-2.149s-.315-1.575-.889-2.149zm-2.149 1.11c.277 0 .539.108.735.304s.304.458.304.735-.108.538-.304.734l-.21.21-1.469-1.469.21-.21c.196-.196.457-.304.734-.304zm-2.657 3.696c-.196-.196-.304-.458-.304-.735s.108-.538.304-.734l.298-.298 1.469 1.469-.299.299c-.391.391-1.075.391-1.468-.001z"/><path d="m13 27h38c2.206 0 4-1.794 4-4v-18c0-2.206-1.794-4-4-4h-38c-2.206 0-4 1.794-4 4v18c0 2.206 1.794 4 4 4zm38-2h-38c-1.103 0-2-.897-2-2v-8h42v8c0 1.103-.897 2-2 2zm-38-22h38c1.103 0 2 .897 2 2v8h-42v-8c0-1.103.897-2 2-2z"/><path d="m16 11c1.654 0 3-1.346 3-3s-1.346-3-3-3-3 1.346-3 3 1.346 3 3 3zm0-4c.551 0 1 .449 1 1s-.449 1-1 1-1-.449-1-1 .449-1 1-1z"/><path d="m24 11c1.654 0 3-1.346 3-3s-1.346-3-3-3-3 1.346-3 3 1.346 3 3 3zm0-4c.551 0 1 .449 1 1s-.449 1-1 1-1-.449-1-1 .449-1 1-1z"/><path d="m32 11c1.654 0 3-1.346 3-3s-1.346-3-3-3-3 1.346-3 3 1.346 3 3 3zm0-4c.551 0 1 .449 1 1s-.449 1-1 1-1-.449-1-1 .449-1 1-1z"/><path d="m40 11c1.654 0 3-1.346 3-3s-1.346-3-3-3-3 1.346-3 3 1.346 3 3 3zm0-4c.551 0 1 .449 1 1s-.449 1-1 1-1-.449-1-1 .449-1 1-1z"/><path d="m48 11c1.654 0 3-1.346 3-3s-1.346-3-3-3-3 1.346-3 3 1.346 3 3 3zm0-4c.551 0 1 .449 1 1s-.449 1-1 1-1-.449-1-1 .449-1 1-1z"/><path d="m16 17c-1.654 0-3 1.346-3 3s1.346 3 3 3 3-1.346 3-3-1.346-3-3-3zm0 4c-.551 0-1-.449-1-1s.449-1 1-1 1 .449 1 1-.449 1-1 1z"/><path d="m24 17c-1.654 0-3 1.346-3 3s1.346 3 3 3 3-1.346 3-3-1.346-3-3-3zm0 4c-.551 0-1-.449-1-1s.449-1 1-1 1 .449 1 1-.449 1-1 1z"/><path d="m32 17c-1.654 0-3 1.346-3 3s1.346 3 3 3 3-1.346 3-3-1.346-3-3-3zm0 4c-.551 0-1-.449-1-1s.449-1 1-1 1 .449 1 1-.449 1-1 1z"/><path d="m40 17c-1.654 0-3 1.346-3 3s1.346 3 3 3 3-1.346 3-3-1.346-3-3-3zm0 4c-.551 0-1-.449-1-1s.449-1 1-1 1 .449 1 1-.449 1-1 1z"/><path d="m48 17c-1.654 0-3 1.346-3 3s1.346 3 3 3 3-1.346 3-3-1.346-3-3-3zm0 4c-.551 0-1-.449-1-1s.449-1 1-1 1 .449 1 1-.449 1-1 1z"/></g></g></svg>