<svg id="Layer_3" enable-background="new 0 0 64 64" height="512" viewBox="0 0 64 64" width="512" xmlns="http://www.w3.org/2000/svg"><g><path d="m4 35v20c0 2.209 1.791 4 4 4h48c2.209 0 4-1.791 4-4v-20z" fill="#7aadf9"/><path d="m4 35v16.661c3.639.868 7.499 1.339 11.5 1.339 15.898 0 29.593-7.375 35.858-18z" fill="#95bdfa"/><path d="m2 13h60v22h-60z" fill="#3279ea"/><path d="m2 35h49.358c2.332-3.955 3.642-8.356 3.642-13 0-3.131-.597-6.151-1.697-9h-51.303z" fill="#5b94ee"/><path d="m22 5h20v4h-20z" fill="#3279ea"/><path d="m12 31h6v8h-6z" fill="#2862be"/><path d="m46 31h6v8h-6z" fill="#2862be"/><path d="m37 22h-3v-3h-4v3h-3v4h3v3h4v-3h3z" fill="#d23f34"/><g><path d="m62 12h-14v-2c0-2.206-1.794-4-4-4h-1v-1c0-.552-.447-1-1-1h-20c-.553 0-1 .448-1 1v1h-1c-2.206 0-4 1.794-4 4v2h-14c-.553 0-1 .448-1 1v22c0 .552.447 1 1 1h1v19c0 2.757 2.243 5 5 5h48c2.757 0 5-2.243 5-5v-19h1c.553 0 1-.448 1-1v-22c0-.552-.447-1-1-1zm-39-6h18v2h-18zm-5 4c0-1.103.897-2 2-2h1v1c0 .552.447 1 1 1h20c.553 0 1-.448 1-1v-1h1c1.103 0 2 .897 2 2v2h-28zm41 45c0 1.654-1.346 3-3 3h-48c-1.654 0-3-1.346-3-3v-19h6v3c0 .552.447 1 1 1h6c.553 0 1-.448 1-1v-3h26v3c0 .552.447 1 1 1h6c.553 0 1-.448 1-1v-3h6zm-46-17v-6h4v6zm34 0v-6h4v6zm14-4h-8v-3c0-.552-.447-1-1-1h-6c-.553 0-1 .448-1 1v3h-26v-3c0-.552-.447-1-1-1h-6c-.553 0-1 .448-1 1v3h-8v-20h58z"/><path d="m27 27h2v2c0 .552.447 1 1 1h4c.553 0 1-.448 1-1v-2h2c.553 0 1-.448 1-1v-4c0-.552-.447-1-1-1h-2v-2c0-.552-.447-1-1-1h-4c-.553 0-1 .448-1 1v2h-2c-.553 0-1 .448-1 1v4c0 .552.447 1 1 1zm1-4h2c.553 0 1-.448 1-1v-2h2v2c0 .552.447 1 1 1h2v2h-2c-.553 0-1 .448-1 1v2h-2v-2c0-.552-.447-1-1-1h-2z"/></g></g></svg>