<svg id="Layer_3" enable-background="new 0 0 64 64" height="512" viewBox="0 0 64 64" width="512" xmlns="http://www.w3.org/2000/svg"><g><path d="m2 2h38v4h-38z" fill="#3279ea"/><path d="m40 62h-38v-10c0-2.209 1.791-4 4-4h30c2.209 0 4 1.791 4 4z" fill="#3279ea"/><path d="m6 48h30c.732 0 1.41.211 2 .555v-42.555h-34v42.555c.59-.344 1.268-.555 2-.555z" fill="#7aadf9"/><path d="m27 22h-12c-1.657 0-3-1.343-3-3v-6c0-1.657 1.343-3 3-3h12c1.657 0 3 1.343 3 3v6c0 1.657-1.343 3-3 3z" fill="#d4d9f0"/><path d="m8 28h26v20h-26z" fill="#d4d9f0"/><path d="m49 30c-1.657 0-3-1.343-3-3v-4c0-1.657 1.343-3 3-3 1.657 0 3 1.343 3 3v4c0 1.657-1.343 3-3 3z" fill="#e2e7f6"/><circle cx="59" cy="11" fill="#e2e7f6" r="2"/><g><path d="m27 9h-12c-2.206 0-4 1.794-4 4v6c0 2.206 1.794 4 4 4h12c2.206 0 4-1.794 4-4v-6c0-2.206-1.794-4-4-4zm2 10c0 1.103-.897 2-2 2h-12c-1.103 0-2-.897-2-2v-6c0-1.103.897-2 2-2h12c1.103 0 2 .897 2 2z"/><path d="m63 17v-2h-3v-1.184c1.161-.414 2-1.514 2-2.816 0-1.654-1.346-3-3-3s-3 1.346-3 3c0 1.302.839 2.402 2 2.816v1.184h-12.586l-1.707-1.707-1.414 1.414 2 2c.187.188.442.293.707.293h3v2.142c-1.72.447-3 2-3 3.858v4c0 1.858 1.28 3.411 3 3.858v7.642c0 1.378-1.122 2.5-2.5 2.5s-2.5-1.122-2.5-2.5v-2.482c0-2.209-1.793-4.006-4-4.016v-25.002h1c.552 0 1-.448 1-1v-4c0-.552-.448-1-1-1h-38c-.552 0-1 .448-1 1v4c0 .552.448 1 1 1h1v41.026c-1.207.913-2 2.347-2 3.974v10c0 .552.448 1 1 1h38c.552 0 1-.448 1-1v-10c0-1.627-.793-3.061-2-3.974v-14.024c1.104.01 2 .91 2 2.016v2.482c0 2.481 2.019 4.5 4.5 4.5s4.5-2.019 4.5-4.5v-7.642c1.72-.447 3-2 3-3.858v-4c0-1.858-1.28-3.411-3-3.858v-2.142h8v44h-10v2h15v-2h-3v-44zm-4-7c.551 0 1 .449 1 1s-.449 1-1 1-1-.449-1-1 .449-1 1-1zm-56-7h36v2h-36zm3 46h30c1.654 0 3 1.346 3 3v5h-36v-5c0-1.654 1.346-3 3-3zm27-18h-24v-2h24zm-24 2h24v14h-24zm-6 28v-2h36v2zm33-14h-1v-19c0-.552-.448-1-1-1h-26c-.552 0-1 .448-1 1v19h-1c-.342 0-.677.035-1 .101v-40.101h32v40.101c-.323-.066-.658-.101-1-.101zm15-24v4c0 1.103-.897 2-2 2s-2-.897-2-2v-4c0-1.103.897-2 2-2s2 .897 2 2z"/></g></g></svg>