<svg id="Layer_3" enable-background="new 0 0 64 64" height="512" viewBox="0 0 64 64" width="512" xmlns="http://www.w3.org/2000/svg"><g><path d="m49 52h-34c-1.105 0-2-.895-2-2v-46c0-1.105.895-2 2-2h34c1.105 0 2 .895 2 2v46c0 1.105-.895 2-2 2z" fill="#3279ea"/><path d="m17 6h30v42h-30z" fill="#e2e7f6"/><path d="m17 39.973c.332.013.665.027 1 .027 14.912 0 27-12.984 27-29 0-1.706-.145-3.375-.408-5h-27.592z" fill="#eef1fa"/><path d="m24 52h16v4h-16z" fill="#7aadf9"/><path d="m29 56h6v7h-6z" fill="#e2e7f6"/><path d="m40 15h-5v-5h-6v5h-5v6h5v5h6v-5h5z" fill="#d23f34"/><path d="m21 35h15v-3l7 6-7 6v-3h-15z" fill="#3279ea"/><g><path d="m49 1h-34c-1.654 0-3 1.346-3 3v46c0 1.654 1.346 3 3 3h8v3c0 .553.447 1 1 1h4v6h2v-6h4v6h2v-6h4c.553 0 1-.447 1-1v-3h8c1.654 0 3-1.346 3-3v-46c0-1.654-1.346-3-3-3zm-10 54h-14v-2h14zm11-5c0 .552-.448 1-1 1h-34c-.552 0-1-.448-1-1v-46c0-.552.448-1 1-1h34c.552 0 1 .448 1 1z"/><path d="m47 5h-30c-.553 0-1 .447-1 1v42c0 .553.447 1 1 1h30c.553 0 1-.447 1-1v-42c0-.553-.447-1-1-1zm-1 42h-28v-40h28z"/><path d="m24 22h4v4c0 .553.447 1 1 1h6c.553 0 1-.447 1-1v-4h4c.553 0 1-.447 1-1v-6c0-.553-.447-1-1-1h-4v-4c0-.553-.447-1-1-1h-6c-.553 0-1 .447-1 1v4h-4c-.553 0-1 .447-1 1v6c0 .553.447 1 1 1zm1-6h4c.553 0 1-.447 1-1v-4h4v4c0 .553.447 1 1 1h4v4h-4c-.553 0-1 .447-1 1v4h-4v-4c0-.553-.447-1-1-1h-4z"/><path d="m21 42h14v2c0 .391.228.745.582.908.134.062.276.092.418.092.234 0 .466-.082.65-.241l7-6c.222-.19.35-.467.35-.759s-.128-.569-.35-.759l-7-6c-.296-.255-.713-.312-1.068-.149-.354.163-.582.517-.582.908v2h-14c-.553 0-1 .447-1 1v6c0 .553.447 1 1 1zm1-6h14c.553 0 1-.447 1-1v-.826l4.464 3.826-4.464 3.826v-.826c0-.553-.447-1-1-1h-14z"/></g></g></svg>