<svg id="Layer_3" enable-background="new 0 0 64 64" height="512" viewBox="0 0 64 64" width="512" xmlns="http://www.w3.org/2000/svg"><g><circle cx="43" cy="33" fill="#3279ea" r="19"/><circle cx="43" cy="33" fill="#7aadf9" r="15"/><circle cx="43" cy="33" fill="#7aadf9" r="15"/><path d="m53.174 44c1.24-1.148 2.291-2.493 3.088-4h-54.262v4z" fill="#e2e7f6"/><g fill="#a9adcc"><path d="m5 44h4v18h-4z"/><path d="m13 44h12v4h-12z"/><path d="m43 40v-2c0-1.105.895-2 2-2h6c1.105 0 2 .895 2 2v2z"/></g><path d="m2 6h24v12h-24z" fill="#3279ea"/><g><path d="m13 49h12c.553 0 1-.447 1-1v-3h1.01c3.771 5.016 9.705 8 15.99 8 11.028 0 20-8.972 20-20s-8.972-20-20-20-20 8.972-20 20c0 2.057.323 4.066.932 6h-21.932c-.553 0-1 .447-1 1v4c0 .553.447 1 1 1h2v16h-3v2h62v-2h-53v-16h2v3c0 .553.447 1 1 1zm11-2h-10v-2h10zm1-14c0-9.925 8.075-18 18-18s18 8.075 18 18-8.075 18-18 18c-5.136 0-10.014-2.214-13.411-6h2.849c2.924 2.575 6.653 4 10.562 4 8.822 0 16-7.178 16-16s-7.178-16-16-16-16 7.178-16 16c0 2.059.406 4.103 1.172 6h-2.128c-.681-1.922-1.044-3.934-1.044-6zm10.804 12h14.37c-2.101 1.261-4.55 2-7.174 2-2.563 0-5.038-.704-7.196-2zm16.196-6h-8v-1c0-.552.448-1 1-1h6c.552 0 1 .448 1 1zm-1-4h-6c-1.654 0-3 1.346-3 3v1h-11.626c-.886-1.864-1.374-3.919-1.374-6 0-7.72 6.28-14 14-14s14 6.28 14 14c0 2.149-.501 4.178-1.37 6h-1.63v-1c0-1.654-1.346-3-3-3zm-48 6h51.473c-.503.719-1.068 1.389-1.693 2h-49.78zm5 20h-2v-16h2z"/><path d="m1 1v2h4v2h-3c-.553 0-1 .447-1 1v12c0 .553.447 1 1 1h24c.553 0 1-.447 1-1v-12c0-.553-.447-1-1-1h-3v-2h40v-2zm24 16h-22v-10h22zm-4-12h-14v-2h14z"/><path d="m13 15h2v-2h2v-2h-2v-2h-2v2h-2v2h2z"/></g></g></svg>