<svg id="Layer_3" enable-background="new 0 0 64 64" height="512" viewBox="0 0 64 64" width="512" xmlns="http://www.w3.org/2000/svg"><g><path d="m17 24h8v38h-8z" fill="#a9adcc"/><path d="m21 44h4v6h-4z" fill="#d4d9f0"/><path d="m21 50h4v6h-4z" fill="#e2e7f6"/><path d="m15 2h12v14h-12z" fill="#e2e7f6"/><path d="m27 2 8 4v6l-8 4z" fill="#d4d9f0"/><path d="m19 16h4v8h-4z" fill="#d4d9f0"/><path d="m35 7 6 1v2l-6 1z" fill="#e2e7f6"/><g><path d="m41.164 7.014-5.164-.861v-.153c0-.379-.214-.725-.553-.895l-8.004-3.991c-.135-.067-.282-.114-.443-.114h-12c-.553 0-1 .447-1 1v14c0 .553.447 1 1 1h3v6h-1c-.553 0-1 .447-1 1v38c0 .553.447 1 1 1h8c.553 0 1-.447 1-1v-38c0-.553-.447-1-1-1h-1v-6h3c.161 0 .308-.047.443-.114l.005.009 8-4c.338-.17.552-.516.552-.895v-.153l5.164-.861c.482-.08.836-.497.836-.986v-2c0-.489-.354-.906-.836-.986zm-17.164 17.986v2h-6v-2zm-6 36v-32h6v14h-3c-.553 0-1 .447-1 1v12c0 .553.447 1 1 1h3v4zm4-10h2v4h-2zm0-2v-4h2v4zm0-26h-2v-6h2zm4-8h-10v-12h10zm8-3.618-6 3v-10.764l6 3zm6-2.229-4 .667v-1.64l4 .666z"/><path d="m43.379 2.5h4.243v2h-4.243z" transform="matrix(.707 -.707 .707 .707 10.852 33.199)"/><path d="m44.5 12.379h2v4.243h-2z" transform="matrix(.707 -.707 .707 .707 3.074 36.42)"/><path d="m45 8h4v2h-4z"/></g></g></svg>