<svg id="Layer_3" enable-background="new 0 0 64 64" height="512" viewBox="0 0 64 64" width="512" xmlns="http://www.w3.org/2000/svg"><g><path d="m7 2h42v58h-42z" fill="#e2e7f6"/><path d="m11 32h34v24h-34z" fill="#7aadf9"/><path d="m11 6h24v22h-24z" fill="#3279ea"/><path d="m41 38h14v24h-14z" fill="#d4d9f0"/><path d="m41 42h14v16h-14z" fill="#3279ea"/><path d="m41 56.182c6.635-2.009 11.495-7.545 11.945-14.182h-11.945z" fill="#5b94ee"/><path d="m39 32h18v6h-18z" fill="#3279ea"/><path d="m45.597 49.519 1.922-1.922c.796-.796 2.087-.796 2.883 0 .796.796.796 2.087 0 2.883l-1.922 1.922c-.796.796-2.087.796-2.883 0-.796-.795-.796-2.086 0-2.883z" fill="#e2e7f6"/><path d="m46.558 48.558-.961.961c-.796.796-.796 2.087 0 2.883s2.087.796 2.883 0l.961-.961z" fill="#a9adcc"/><g><path d="m11 29h24c.552 0 1-.448 1-1v-22c0-.552-.448-1-1-1h-24c-.552 0-1 .448-1 1v22c0 .552.448 1 1 1zm1-22h22v20h-22z"/><path d="m25 13.5c0-2.481-2.019-4.5-4.5-4.5h-5.5c-.552 0-1 .448-1 1v15h2v-7h1c3.309 0 6 2.691 6 6v1h2v-1c0-2.527-1.178-4.785-3.014-6.252 1.753-.615 3.014-2.287 3.014-4.248zm-4.5 2.5h-3.5-1v-5h4.5c1.378 0 2.5 1.122 2.5 2.5s-1.122 2.5-2.5 2.5z"/><path d="m30 19.586-.5.5-.5-.5v-1.586h-2v2c0 .265.105.52.293.707l.793.793-.793.793c-.188.187-.293.442-.293.707v2h2v-1.586l.5-.5.5.5v1.586h2v-2c0-.265-.105-.52-.293-.707l-.793-.793.793-.793c.188-.187.293-.442.293-.707v-2h-2z"/><path d="m38 7h8v2h-8z"/><path d="m38 11h8v2h-8z"/><path d="m38 15h8v2h-8z"/><path d="m38 19h8v2h-8z"/><path d="m38 23h8v2h-8z"/><path d="m38 27h8v2h-8z"/><path d="m57 31h-7v-29c0-.552-.448-1-1-1h-42c-.552 0-1 .448-1 1v58c0 .552.448 1 1 1h33v1c0 .552.448 1 1 1h14c.552 0 1-.448 1-1v-23h1c.552 0 1-.448 1-1v-6c0-.552-.448-1-1-1zm-49 28v-56h40v28h-9c-.552 0-1 .448-1 1v6c0 .552.448 1 1 1h1v4h-18v-10h14v-2h-25c-.552 0-1 .448-1 1v24c0 .552.448 1 1 1h29v2zm4-14h8v10h-8zm0-2v-10h8v10zm10 2h18v10h-18zm20-2h12v14h-12zm0 18v-2h12v2zm12-20h-12v-2h12zm2-4h-16v-4h16z"/><path d="m51.11 46.89c-1.147-1.148-3.15-1.148-4.297 0l-1.922 1.922c-.575.574-.891 1.337-.891 2.149s.316 1.575.89 2.149 1.337.89 2.149.89 1.575-.316 2.148-.89l1.922-1.922c.574-.574.89-1.337.89-2.149s-.315-1.575-.889-2.149zm-2.149 1.11c.277 0 .539.108.735.304s.304.458.304.735-.108.538-.304.734l-.21.21-1.469-1.469.21-.21c.196-.196.457-.304.734-.304zm-2.657 3.696c-.196-.196-.304-.458-.304-.735s.108-.538.304-.734l.298-.298 1.469 1.469-.299.299c-.391.391-1.075.391-1.468-.001z"/><path d="m18.105 34.553-2.229 4.459-1.044-1.566-1.664 1.109 2 3c.186.279.499.445.832.445.021 0 .042 0 .062-.002.356-.022.673-.232.833-.551l3-6z"/><path d="m18.105 46.553-2.229 4.459-1.044-1.566-1.664 1.109 2 3c.186.279.499.445.832.445.021 0 .042 0 .062-.002.356-.022.673-.232.833-.551l3-6z"/><path d="m24 35h12v2h-12z"/><path d="m24 39h12v2h-12z"/><path d="m24 47h14v2h-14z"/><path d="m24 51h14v2h-14z"/></g></g></svg>