<svg id="Layer_3" enable-background="new 0 0 64 64" height="512" viewBox="0 0 64 64" width="512" xmlns="http://www.w3.org/2000/svg"><g><path d="m17 2h4v28h-4z" fill="#d4d9f0"/><path d="m15 30h8v32h-8z" fill="#a9adcc"/><path d="m38 27h-8c-1.657 0-3-1.343-3-3v-12c0-1.657 1.343-3 3-3h8c1.657 0 3 1.343 3 3v12c0 1.657-1.343 3-3 3z" fill="#3279ea"/><path d="m30 27h8v4h-8z" fill="#7aadf9"/><path d="m32 35h4v4h-4z" fill="#3279ea"/><g><path d="m24 61v-31c0-.553-.447-1-1-1h-1v-23h11v2h-3c-2.206 0-4 1.794-4 4v12c0 1.859 1.279 3.411 3 3.858v3.142c0 .553.447 1 1 1h3v2h-1c-.553 0-1 .447-1 1v4c0 .553.447 1 1 1h1v1c0 2.206 1.794 4 4 4s4-1.794 4-4v-2c0-.552.448-1 1-1s1 .448 1 1v1c0 1.654 1.346 3 3 3h1v-2h-1c-.552 0-1-.448-1-1v-1c0-1.654-1.346-3-3-3s-3 1.346-3 3v2c0 1.103-.897 2-2 2s-2-.897-2-2v-1h1c.553 0 1-.447 1-1v-4c0-.553-.447-1-1-1h-1v-2h3c.553 0 1-.447 1-1v-3.142c1.721-.447 3-1.999 3-3.858v-12c0-2.206-1.794-4-4-4h-3v-2h11c.266 0 .52-.105.707-.293l3-3-1.414-1.414-2.707 2.707h-23.586v-2c0-.553-.447-1-1-1h-4c-.553 0-1 .447-1 1v27h-1c-.553 0-1 .447-1 1v31h-13v2h62v-2zm11-23h-2v-2h2zm-4-8v-2h6v2zm9-18v12c0 1.103-.897 2-2 2h-8c-1.103 0-2-.897-2-2v-12c0-1.103.897-2 2-2h8c1.103 0 2 .897 2 2zm-22-9h2v26h-2zm-2 28h6v30h-6z"/><path d="m30 17v2h3v3h2v-3h3v-2h-3v-3h-2v3z"/></g></g></svg>