<svg id="Layer_3" enable-background="new 0 0 64 64" height="512" viewBox="0 0 64 64" width="512" xmlns="http://www.w3.org/2000/svg"><g><path d="m36 28h26v34h-26z" fill="#e2e7f6"/><g><path d="m23 63c-2.757 0-5-2.243-5-5v-25h2v25c0 1.654 1.346 3 3 3s3-1.346 3-3v-8c0-1.654 1.346-3 3-3h14v2h-14c-.552 0-1 .449-1 1v8c0 2.757-2.243 5-5 5z" fill="#d4d9f0"/></g><path d="m2 14v3c0 9.389 7.611 17 17 17 9.389 0 17-7.611 17-17v-3h-4v3c0 7.18-5.82 13-13 13-7.18 0-13-5.82-13-13v-3z" fill="#a3a7c6"/><g><path d="m5 14h-2v-7c0-1.654 1.346-3 3-3h2v2h-2c-.552 0-1 .449-1 1z" fill="#d4d9f0"/></g><path d="m9 8h-1v-6h1c1.657 0 3 1.343 3 3 0 1.657-1.343 3-3 3z" fill="#a3a7c6"/><g><path d="m35 14h-2v-7c0-.551-.448-1-1-1h-2v-2h2c1.654 0 3 1.346 3 3z" fill="#d4d9f0"/></g><path d="m29 8h1v-6h-1c-1.657 0-3 1.343-3 3 0 1.657 1.343 3 3 3z" fill="#a3a7c6"/><circle cx="46" cy="48" fill="#a3a7c6" r="4"/><g><path d="m62 27h-26c-.553 0-1 .448-1 1v19h-6c-1.654 0-3 1.346-3 3v8c0 1.654-1.346 3-3 3s-3-1.346-3-3v-23.051c9.459-.523 17-8.361 17-17.949v-3c0-.552-.447-1-1-1h-1v-6c0-1.654-1.346-3-3-3h-1v-2c0-.552-.447-1-1-1h-1c-2.206 0-4 1.794-4 4s1.794 4 4 4h1c.553 0 1-.448 1-1v-2h1c.552 0 1 .449 1 1v6h-1c-.553 0-1 .448-1 1v3c0 6.617-5.383 12-12 12s-12-5.383-12-12v-3c0-.552-.447-1-1-1h-1v-6c0-.551.448-1 1-1h1v2c0 .552.447 1 1 1h1c2.206 0 4-1.794 4-4s-1.794-4-4-4h-1c-.553 0-1 .448-1 1v2h-1c-1.654 0-3 1.346-3 3v6h-1c-.553 0-1 .448-1 1v3c0 9.588 7.541 17.426 17 17.949v23.051c0 2.757 2.243 5 5 5s5-2.243 5-5v-8c0-.551.448-1 1-1h6v13c0 .552.447 1 1 1h26c.553 0 1-.448 1-1v-34c0-.552-.447-1-1-1zm-33-20c-1.103 0-2-.897-2-2s.897-2 2-2zm-20-4c1.103 0 2 .897 2 2s-.897 2-2 2zm-6 14v-2h2v2c0 7.72 6.28 14 14 14s14-6.28 14-14v-2h2v2c0 8.822-7.178 16-16 16s-16-7.178-16-16zm58 44h-24v-12h4.101c.465 2.279 2.484 4 4.899 4 2.757 0 5-2.243 5-5s-2.243-5-5-5c-2.414 0-4.434 1.721-4.899 4h-4.101v-18h24zm-18-13c0-1.654 1.346-3 3-3s3 1.346 3 3-1.346 3-3 3-3-1.346-3-3z"/><path d="m39 31h20v2h-20z"/><path d="m39 35h20v2h-20z"/><path d="m39 39h20v2h-20z"/><path d="m51 43h8v2h-8z"/><path d="m53 47h6v2h-6z"/><path d="m52 51h7v2h-7z"/><path d="m39 55h20v2h-20z"/></g></g></svg>