<svg id="Layer_3" enable-background="new 0 0 64 64" height="512" viewBox="0 0 64 64" width="512" xmlns="http://www.w3.org/2000/svg"><g><path d="m34 62h-18c-2.209 0-4-1.791-4-4v-25c0-7.18 5.82-13 13-13 7.18 0 13 5.82 13 13v25c0 2.209-1.791 4-4 4z" fill="#babdd6"/><path d="m25 20c2.166 0 4.204.537 6 1.474v-5.474h-12v5.474c1.796-.937 3.834-1.474 6-1.474z" fill="#e2e7f6"/><path d="m21 12h8v4h-8z" fill="#babdd6"/><path d="m23 12v-8c0-1.105.895-2 2-2 1.105 0 2 .895 2 2v8z" fill="#e2e7f6"/><path d="m16 36h18v22h-18z" fill="#3279ea"/><circle cx="25" cy="28" fill="#3279ea" r="4"/><path d="m16 40h18v14h-18z" fill="#7aadf9"/><g><path d="m25 52c-1.654 0-3-1.346-3-3v-2c0-1.654 1.346-3 3-3s3 1.346 3 3v2c0 1.654-1.346 3-3 3zm0-6c-.551 0-1 .448-1 1v2c0 .552.449 1 1 1s1-.448 1-1v-2c0-.552-.449-1-1-1z" fill="#e2e7f6"/></g><path d="m49 28.422v-18.422c0-1.105-.895-2-2-2-1.105 0-2 .895-2 2v18.422c-2.014.881-3.339 3.045-2.924 5.463.338 1.969 1.89 3.593 3.845 4.002 3.233.675 6.079-1.773 6.079-4.887 0-2.049-1.236-3.806-3-4.578z" fill="#d23f34"/><circle cx="47" cy="33" fill="#f8ced7" r="2"/><g><path d="m32 20.894v-4.894c0-.553-.448-1-1-1h-1v-3c0-.553-.448-1-1-1h-1v-7c0-1.654-1.346-3-3-3s-3 1.346-3 3v7h-1c-.552 0-1 .447-1 1v3h-1c-.552 0-1 .447-1 1v4.894c-4.177 2.425-7 6.937-7 12.106v25c0 2.757 2.243 5 5 5h18c2.757 0 5-2.243 5-5v-25c0-5.168-2.823-9.681-7-12.106zm-8-16.894c0-.552.449-1 1-1s1 .448 1 1v7h-2zm-2 9h6v2h-6zm-2 4h10v2.939c-1.555-.598-3.237-.939-5-.939s-3.445.341-5 .939zm17 41c0 1.654-1.346 3-3 3h-18c-1.654 0-3-1.346-3-3v-25c0-6.617 5.383-12 12-12s12 5.383 12 12z"/><path d="m15 36v22c0 .553.448 1 1 1h18c.552 0 1-.447 1-1v-22c0-.553-.448-1-1-1h-18c-.552 0-1 .447-1 1zm2 5h16v12h-16zm0 16v-2h16v2zm16-20v2h-16v-2z"/><path d="m25 33c2.757 0 5-2.243 5-5s-2.243-5-5-5-5 2.243-5 5 2.243 5 5 5zm0-8c1.654 0 3 1.346 3 3s-1.346 3-3 3-3-1.346-3-3 1.346-3 3-3z"/><path d="m25 44c-1.654 0-3 1.346-3 3v2c0 1.654 1.346 3 3 3s3-1.346 3-3v-2c0-1.654-1.346-3-3-3zm1 5c0 .552-.449 1-1 1s-1-.448-1-1v-2c0-.552.449-1 1-1s1 .448 1 1z"/><path d="m29 42h2v2h-2z"/><path d="m50 27.809v-17.809c0-1.654-1.346-3-3-3s-3 1.346-3 3v17.809c-2.161 1.248-3.342 3.725-2.909 6.246.409 2.386 2.269 4.318 4.626 4.811.425.089.852.133 1.275.133 1.377 0 2.711-.463 3.79-1.34 1.409-1.146 2.218-2.845 2.218-4.659 0-2.155-1.158-4.127-3-5.191zm-3-18.809c.551 0 1 .448 1 1v3h-2v-3c0-.552.449-1 1-1zm2.521 27.106c-.954.775-2.157 1.059-3.395.802-1.537-.321-2.797-1.634-3.064-3.191-.315-1.837.647-3.638 2.339-4.379.364-.159.599-.519.599-.916v-13.422h2v13.422c0 .397.235.757.599.916 1.459.639 2.401 2.076 2.401 3.662 0 1.21-.54 2.342-1.479 3.106z"/><path d="m47 30c-1.654 0-3 1.346-3 3s1.346 3 3 3 3-1.346 3-3-1.346-3-3-3zm0 4c-.551 0-1-.448-1-1s.449-1 1-1 1 .448 1 1-.449 1-1 1z"/><path d="m46 1h2v4h-2z"/><path d="m50.379 4.5h4.243v2h-4.243z" transform="matrix(.707 -.707 .707 .707 11.488 38.734)"/><path d="m40.5 3.379h2v4.243h-2z" transform="matrix(.707 -.707 .707 .707 8.266 30.956)"/></g></g></svg>